<svg width="128" height="128" viewBox="0 0 128 128" fill="none" xmlns="http://www.w3.org/2000/svg">
<rect width="128" height="128" rx="25" fill="#09090B"/>
<path d="M50.0869 38.1667C49.9094 37.9888 49.8098 37.7475 49.8098 37.4959V25.9505C49.8098 25.1054 50.8288 24.6822 51.4247 25.2797L63.3311 37.2181C63.7005 37.5886 64.2995 37.5886 64.6689 37.2181L76.5753 25.2797C77.1713 24.6822 78.1903 25.1054 78.1903 25.9505V37.4959C78.1903 37.7475 78.0906 37.9888 77.9132 38.1667L64.6689 51.4465C64.2995 51.817 63.7005 51.817 63.3311 51.4465L50.0869 38.1667Z" fill="#FAFAFA"/>
<path d="M78.9238 38.7518C78.9888 38.5088 79.1473 38.3016 79.3646 38.1758L89.3365 32.4031C90.0664 31.9805 90.9414 32.6538 90.7233 33.4701L86.3652 49.7782C86.23 50.2842 86.5295 50.8044 87.0342 50.9399L103.299 55.3097C104.113 55.5284 104.257 56.6249 103.527 57.0474L93.5549 62.8202C93.3376 62.9459 93.0794 62.98 92.837 62.9149L74.7451 58.0542C74.2404 57.9186 73.9409 57.3984 74.0761 56.8924L78.9238 38.7518Z" fill="#FAFAFA"/>
<path d="M103.299 71.6903C104.113 71.4716 104.257 70.3752 103.527 69.9526L93.5548 64.1799C93.3376 64.0541 93.0793 64.02 92.837 64.0851L74.745 68.9459C74.2404 69.0815 73.9409 69.6016 74.0761 70.1076L78.9238 88.2482C78.9888 88.4912 79.1473 88.6984 79.3646 88.8242L89.3365 94.597C90.0663 95.0195 90.9414 94.3463 90.7232 93.53L86.3652 77.2218C86.23 76.7158 86.5295 76.1957 87.0341 76.0601L103.299 71.6903Z" fill="#FAFAFA"/>
<path d="M77.9131 88.8333C78.0906 89.0112 78.1902 89.2525 78.1902 89.5041V101.05C78.1902 101.895 77.1712 102.318 76.5753 101.72L64.6689 89.7819C64.2995 89.4114 63.7005 89.4114 63.331 89.7819L51.4247 101.72C50.8287 102.318 49.8097 101.895 49.8097 101.05V89.5041C49.8097 89.2525 49.9094 89.0112 50.0868 88.8333L63.331 75.5535C63.7005 75.183 64.2995 75.183 64.6689 75.5535L77.9131 88.8333Z" fill="#FAFAFA"/>
<path d="M37.2767 93.5299C37.0586 94.3462 37.9336 95.0195 38.6635 94.5969L48.6354 88.8242C48.8527 88.6984 49.0112 88.4912 49.0761 88.2482L53.9239 70.1076C54.0591 69.6016 53.7596 69.0814 53.2549 68.9458L35.163 64.0851C34.9206 64.02 34.6624 64.0541 34.4451 64.1798L24.4733 69.9526C23.7434 70.3751 23.8873 71.4716 24.7014 71.6903L40.9658 76.0601C41.4705 76.1956 41.77 76.7158 41.6348 77.2218L37.2767 93.5299Z" fill="#FAFAFA"/>
<path d="M35.163 62.9149C34.9207 62.98 34.6624 62.9459 34.4452 62.8201L24.4733 57.0474C23.7434 56.6248 23.8874 55.5284 24.7015 55.3097L40.9658 50.9399C41.4705 50.8043 41.77 50.2842 41.6348 49.7782L37.2767 33.47C37.0586 32.6537 37.9336 31.9805 38.6635 32.403L48.6354 38.1758C48.8527 38.3016 49.0112 38.5088 49.0762 38.7518L53.9239 56.8924C54.0591 57.3984 53.7596 57.9185 53.255 58.0541L35.163 62.9149Z" fill="#FAFAFA"/>
</svg>
