<svg width="128" height="128" viewBox="0 0 128 128" fill="none" xmlns="http://www.w3.org/2000/svg">
<rect width="128" height="128" rx="25" fill="#09090B"/>
<path d="M64 19C76.4264 19 86.5 29.0736 86.5 41.5H75.25C75.25 35.2868 70.2132 30.25 64 30.25C57.7868 30.25 52.75 35.2868 52.75 41.5L41.5 41.5C41.5 29.0736 51.5736 19 64 19Z" fill="white"/>
<path d="M41.5 86.5C29.0736 86.5 19 76.4264 19 64C19 51.5736 29.0736 41.5 41.5 41.5V52.75C35.2868 52.75 30.25 57.7868 30.25 64C30.25 70.2132 35.2868 75.25 41.5 75.25V86.5Z" fill="white"/>
<path d="M86.5 86.5C86.5 98.9264 76.4264 109 64 109C51.5736 109 41.5 98.9264 41.5 86.5H52.75C52.75 92.7132 57.7868 97.75 64 97.75C70.2132 97.75 75.25 92.7132 75.25 86.5H86.5Z" fill="white"/>
<path d="M86.5 86.5C98.9264 86.5 109 76.4264 109 64C109 51.5736 98.9264 41.5 86.5 41.5V52.75C92.7132 52.75 97.75 57.7868 97.75 64C97.75 70.2132 92.7132 75.25 86.5 75.25V86.5Z" fill="white"/>
<path fill-rule="evenodd" clip-rule="evenodd" d="M64 86.5C76.4264 86.5 86.5 76.4264 86.5 64C86.5 51.5736 76.4264 41.5 64 41.5C51.5736 41.5 41.5 51.5736 41.5 64C41.5 76.4264 51.5736 86.5 64 86.5ZM64 75.25C70.2132 75.25 75.25 70.2132 75.25 64C75.25 57.7868 70.2132 52.75 64 52.75C57.7868 52.75 52.75 57.7868 52.75 64C52.75 70.2132 57.7868 75.25 64 75.25Z" fill="white"/>
<path d="M30.25 41.5C30.25 35.2868 35.2868 30.25 41.5 30.25V19C29.0736 19 19 29.0736 19 41.5H30.25Z" fill="white"/>
<path d="M97.75 41.5C97.75 35.2868 92.7132 30.25 86.5 30.25V19C98.9264 19 109 29.0736 109 41.5H97.75Z" fill="white"/>
<path d="M97.75 86.5C97.75 92.7132 92.7132 97.75 86.5 97.75V109C98.9264 109 109 98.9264 109 86.5H97.75Z" fill="white"/>
<path d="M30.25 86.5C30.25 92.7132 35.2868 97.75 41.5 97.75V109C29.0736 109 19 98.9264 19 86.5H30.25Z" fill="white"/>
</svg>
