<svg width="128" height="128" viewBox="0 0 128 128" fill="none" xmlns="http://www.w3.org/2000/svg">
<rect width="128" height="128" rx="25" fill="#09090B"/>
<path d="M64 49.7864C64 47.4488 64.5643 45.2429 65.5642 43.2976L65.5645 43.2971L65.5711 43.2843C66.0791 42.2986 66.6989 41.3799 67.4139 40.5452C68.8566 38.8609 70.6864 37.518 72.7654 36.6545C72.5386 36.3807 72.2969 36.1151 72.0404 35.8586C70.7047 34.5229 69.1194 33.589 67.4346 33.0568C66.4711 33.6789 65.5647 34.382 64.7252 35.1564C64.6766 35.2012 64.6282 35.2463 64.5801 35.2916C64.3829 35.4771 64.1895 35.6667 64 35.86C63.8105 35.6667 63.6171 35.4771 63.4199 35.2916C62.54 34.4636 61.5846 33.7149 60.5653 33.0568C59.5394 32.3945 58.4487 31.8239 57.3048 31.3568C55.0096 30.4195 52.5001 29.8985 49.8702 29.8876C49.8423 29.8875 49.8144 29.8875 49.7864 29.8875C48.4122 29.8875 47.0706 30.0267 45.7748 30.292C38.0036 31.8827 31.8827 38.0036 30.292 45.7748C32.6037 44.0448 35.1703 42.8117 37.8441 42.0757C38.9389 40.3836 40.3836 38.9389 42.0757 37.8442C43.173 37.1342 44.3744 36.5713 45.652 36.1836C46.9602 35.7864 48.3484 35.5729 49.7864 35.5729C50.6505 35.5729 51.4966 35.65 52.3182 35.7977C53.3317 35.9799 54.3079 36.2696 55.2346 36.6545C57.3136 37.518 59.1434 38.8609 60.586 40.5452C61.3042 41.3837 61.9265 42.3069 62.4358 43.2976C62.4924 43.4079 62.5477 43.5189 62.6015 43.6308C63.4978 45.4933 64 47.5812 64 49.7864Z" fill="#FAFAFA"/>
<path d="M74.0505 53.9495C75.7035 52.2965 77.6623 51.1358 79.7449 50.4673C79.8233 50.4421 79.9019 50.4176 79.9807 50.3938C80.9672 50.096 81.9797 49.9077 82.9991 49.8289C85.2102 49.6581 87.4536 50.0024 89.5343 50.8619C89.5675 50.5079 89.5844 50.1492 89.5844 49.7864C89.5844 47.8975 89.1238 46.1161 88.3088 44.5485C87.1735 44.3041 86.021 44.1598 84.8654 44.1156C84.8136 44.1136 84.7619 44.1119 84.7101 44.1103C84.4395 44.102 84.1687 44.0993 83.898 44.102C83.9007 43.8313 83.898 43.5605 83.8897 43.2899C83.853 42.0823 83.7069 40.8773 83.4515 39.6912C83.1944 38.4974 82.8266 37.3228 82.348 36.1836C81.3878 33.8978 79.9817 31.7549 78.1298 29.8876C78.1102 29.8678 78.0905 29.848 78.0707 29.8283C77.099 28.8566 76.0518 28.0064 74.948 27.2777C68.3281 22.9074 59.6719 22.9074 53.052 27.2777C55.9099 27.689 58.5967 28.6319 61.0079 30.0022C62.9785 29.5798 65.0215 29.5798 66.9921 30.0022C68.2701 30.2761 69.5176 30.7276 70.6952 31.3568C71.9011 32.0011 73.0337 32.8316 74.0505 33.8485C74.6615 34.4595 75.2053 35.1123 75.6818 35.7977C76.2696 36.6432 76.755 37.5383 77.1381 38.4657C77.9976 40.5464 78.3419 42.7898 78.171 45.0009C78.086 46.1017 77.8732 47.1945 77.5327 48.2552C77.4948 48.3732 77.4554 48.4908 77.4143 48.608C76.7311 50.5587 75.6098 52.3902 74.0505 53.9495Z" fill="#FAFAFA"/>
<path d="M78.2135 64C80.5512 64 82.7571 64.5643 84.7023 65.5642L84.7157 65.5711C85.7014 66.0791 86.6201 66.699 87.4548 67.414C89.1391 68.8566 90.482 70.6864 91.3455 72.7654C91.6193 72.5386 91.8849 72.2969 92.1414 72.0404C93.4771 70.7047 94.411 69.1194 94.9432 67.4347C94.2851 66.4154 93.5363 65.46 92.7084 64.5801C92.5228 64.3829 92.3333 64.1895 92.1399 64C92.3333 63.8105 92.5228 63.6171 92.7084 63.4199C93.5363 62.54 94.2851 61.5846 94.9432 60.5653C95.6055 59.5394 96.1761 58.4487 96.6432 57.3048C97.5805 55.0095 98.1015 52.5 98.1124 49.8702C98.1125 49.8423 98.1125 49.8144 98.1125 49.7864C98.1125 48.4122 97.9732 47.0706 97.708 45.7748C96.1172 38.0036 89.9964 31.8828 82.2252 30.292C83.9552 32.6037 85.1883 35.1703 85.9243 37.8442C87.6164 38.939 89.061 40.3836 90.1558 42.0757C90.8658 43.173 91.4286 44.3744 91.8164 45.652C92.2136 46.9602 92.4271 48.3484 92.4271 49.7864C92.4271 50.6505 92.35 51.4966 92.2023 52.3182C92.0201 53.3317 91.7304 54.3079 91.3455 55.2346C90.482 57.3136 89.1391 59.1434 87.4548 60.586C86.6163 61.3043 85.6931 61.9265 84.7023 62.4358C84.5921 62.4924 84.481 62.5477 84.3691 62.6015C82.5067 63.4978 80.4187 64 78.2135 64Z" fill="#FAFAFA"/>
<path d="M74.0505 74.0505C75.7035 75.7035 76.8642 77.6623 77.5327 79.7449C77.5579 79.8233 77.5824 79.9019 77.6061 79.9807C77.904 80.9672 78.0923 81.9797 78.171 82.9991C78.3419 85.2102 77.9976 87.4536 77.1381 89.5343C77.4921 89.5675 77.8508 89.5844 78.2135 89.5844C80.1025 89.5844 81.8839 89.1238 83.4515 88.3088C83.6959 87.1735 83.8402 86.021 83.8844 84.8654C83.8864 84.8136 83.8881 84.7619 83.8897 84.7101C83.898 84.4395 83.9007 84.1687 83.898 83.898C84.1687 83.9007 84.4395 83.898 84.7101 83.8897C85.9177 83.853 87.1227 83.7069 88.3088 83.4515C89.5025 83.1944 90.6772 82.8266 91.8164 82.348C94.1022 81.3878 96.2451 79.9818 98.1124 78.1298C98.1322 78.1102 98.152 78.0905 98.1717 78.0707C99.1434 77.099 99.9936 76.0518 100.722 74.948C105.093 68.3281 105.093 59.6719 100.722 53.052C100.311 55.9099 99.368 58.5967 97.9978 61.0078C98.4202 62.9785 98.4202 65.0215 97.9978 66.9922C97.7239 68.2701 97.2724 69.5176 96.6432 70.6952C95.9989 71.9011 95.1684 73.0337 94.1515 74.0505C93.5405 74.6615 92.8877 75.2053 92.2023 75.6818C91.3568 76.2696 90.4617 76.755 89.5343 77.1381C87.4536 77.9976 85.2102 78.3419 82.9991 78.171C81.8983 78.086 80.8055 77.8732 79.7449 77.5327C79.6268 77.4948 79.5092 77.4554 79.392 77.4143C77.4413 76.7311 75.6098 75.6098 74.0505 74.0505Z" fill="#FAFAFA"/>
<path d="M64 78.2136C64 80.5512 63.4356 82.7571 62.4358 84.7024L62.4289 84.7157C61.9209 85.7014 61.301 86.6201 60.586 87.4548C59.1434 89.1391 57.3136 90.482 55.2346 91.3455C55.4614 91.6193 55.7031 91.8849 55.9596 92.1414C57.2953 93.4771 58.8806 94.411 60.5653 94.9432C61.5791 94.2886 62.5296 93.5445 63.4056 92.7219L63.4199 92.7084C63.6171 92.5229 63.8105 92.3333 64 92.14C64.1895 92.3333 64.3829 92.5229 64.5801 92.7084C65.46 93.5364 66.4153 94.2851 67.4347 94.9432C68.4605 95.6055 69.5512 96.1761 70.6952 96.6432C72.9904 97.5805 75.4999 98.1015 78.1298 98.1124C78.1577 98.1125 78.1856 98.1126 78.2135 98.1126C79.5877 98.1126 80.9294 97.9733 82.2252 97.708C89.9964 96.1172 96.1172 89.9964 97.708 82.2252C95.3963 83.9552 92.8297 85.1883 90.1558 85.9243C89.061 87.6164 87.6164 89.061 85.9243 90.1558C84.827 90.8658 83.6256 91.4286 82.348 91.8164C81.0397 92.2136 79.6516 92.4271 78.2135 92.4271C77.3494 92.4271 76.5034 92.35 75.6818 92.2023C74.6683 92.0201 73.6921 91.7304 72.7654 91.3455C70.6864 90.482 68.8566 89.1391 67.4139 87.4548C66.6957 86.6163 66.0735 85.6931 65.5642 84.7024C65.5075 84.5921 65.4523 84.4811 65.3984 84.3692C64.5022 82.5067 64 80.4188 64 78.2136Z" fill="#FAFAFA"/>
<path d="M53.9495 74.0505C52.2965 75.7035 50.3377 76.8642 48.2551 77.5327C48.1767 77.5579 48.0981 77.5824 48.0193 77.6061C47.0328 77.904 46.0203 78.0923 45.0009 78.171C42.7898 78.3419 40.5464 77.9976 38.4657 77.1381C38.4325 77.4921 38.4156 77.8508 38.4156 78.2136C38.4156 80.1025 38.8762 81.8839 39.6912 83.4515C40.8773 83.7069 42.0822 83.853 43.2899 83.8897C43.5605 83.898 43.8313 83.9007 44.102 83.898C44.0993 84.1687 44.102 84.4395 44.1103 84.7101C44.147 85.9178 44.2931 87.1227 44.5485 88.3088C44.8056 89.5026 45.1734 90.6773 45.652 91.8164C46.6122 94.1022 48.0183 96.2451 49.8702 98.1124C49.8898 98.1322 49.9095 98.152 49.9293 98.1717C50.901 99.1434 51.9482 99.9936 53.052 100.722C59.6719 105.093 68.3281 105.093 74.948 100.722C72.0901 100.311 69.4033 99.3681 66.9921 97.9978C65.0215 98.4202 62.9785 98.4202 61.0078 97.9978C59.7299 97.7239 58.4824 97.2724 57.3048 96.6432C56.0989 95.9989 54.9663 95.1684 53.9495 94.1515C53.3385 93.5405 52.7947 92.8877 52.3182 92.2023C51.7304 91.3568 51.245 90.4617 50.8619 89.5343C50.0024 87.4536 49.6581 85.2102 49.829 82.9991C49.914 81.8983 50.1268 80.8055 50.4673 79.7449C50.5052 79.6268 50.5446 79.5092 50.5857 79.392C51.2689 77.4413 52.3902 75.6098 53.9495 74.0505Z" fill="#FAFAFA"/>
<path d="M40.5451 67.414C41.3837 66.6957 42.3068 66.0735 43.2976 65.5642C43.4079 65.5076 43.5189 65.4523 43.6308 65.3985C45.4933 64.5022 47.5812 64 49.7864 64C47.4487 64 45.2429 63.4357 43.2976 62.4358L43.2971 62.4355L43.2843 62.4289C42.2986 61.9209 41.3799 61.301 40.5451 60.586C38.8608 59.1434 37.518 57.3136 36.6544 55.2346C36.3807 55.4614 36.1151 55.7031 35.8586 55.9596C34.5229 57.2953 33.589 58.8806 33.0568 60.5654C33.511 61.2689 34.0084 61.9419 34.5452 62.5807C34.7861 62.8674 35.0351 63.1473 35.2916 63.4199C35.4771 63.6171 35.6666 63.8105 35.86 64C35.6666 64.1895 35.4771 64.3829 35.2916 64.5801C34.4636 65.46 33.7149 66.4153 33.0568 67.4346C32.3945 68.4605 31.8239 69.5512 31.3568 70.6951C30.4194 72.9904 29.8984 75.4999 29.8876 78.1298C29.8875 78.1577 29.8874 78.1856 29.8874 78.2136C29.8874 79.5878 30.0267 80.9294 30.292 82.2252C31.8827 89.9964 38.0036 96.1173 45.7748 97.708C44.0448 95.3963 42.8117 92.8297 42.0757 90.1558C40.3836 89.0611 38.9389 87.6164 37.8441 85.9243C37.1342 84.827 36.5713 83.6256 36.1835 82.348C35.7864 81.0397 35.5729 79.6516 35.5729 78.2136C35.5729 77.3494 35.65 76.5034 35.7977 75.6818C35.9799 74.6683 36.2696 73.6921 36.6544 72.7654C37.518 70.6864 38.8608 68.8566 40.5451 67.414Z" fill="#FAFAFA"/>
<path d="M45.0009 49.8289C46.1017 49.914 47.1945 50.1268 48.2551 50.4673C48.3732 50.5052 48.4908 50.5446 48.608 50.5857C50.5587 51.2689 52.3902 52.3902 53.9495 53.9495C52.2965 52.2965 51.1358 50.3377 50.4673 48.2552C50.4421 48.1767 50.4176 48.0981 50.3938 48.0193C50.096 47.0328 49.9077 46.0203 49.829 45.0009C49.6581 42.7898 50.0024 40.5464 50.8619 38.4657C50.5079 38.4325 50.1491 38.4156 49.7864 38.4156C47.8975 38.4156 46.1161 38.8762 44.5485 39.6912C44.2931 40.8773 44.147 42.0823 44.1103 43.2899C44.102 43.5605 44.0993 43.8313 44.102 44.102C43.8313 44.0993 43.5605 44.102 43.2899 44.1103C42.0822 44.147 40.8773 44.2931 39.6912 44.5485C38.4974 44.8056 37.3227 45.1734 36.1835 45.652C33.8978 46.6122 31.7549 48.0183 29.8876 49.8702C29.8678 49.8899 29.848 49.9095 29.8283 49.9293C28.8566 50.901 28.0064 51.9482 27.2777 53.052C22.9074 59.6719 22.9074 68.3281 27.2777 74.948C27.689 72.0901 28.6319 69.4033 30.0022 66.9921C29.5798 65.0215 29.5798 62.9785 30.0022 61.0079C30.2761 59.7299 30.7276 58.4824 31.3568 57.3048C32.0011 56.0989 32.8316 54.9663 33.8485 53.9495C34.4595 53.3385 35.1123 52.7947 35.7977 52.3182C36.6432 51.7304 37.5383 51.245 38.4657 50.8619C40.5464 50.0024 42.7898 49.6581 45.0009 49.8289Z" fill="#FAFAFA"/>
</svg>
