<svg width="128" height="128" viewBox="0 0 128 128" fill="none" xmlns="http://www.w3.org/2000/svg">
<rect width="128" height="128" rx="25" fill="#09090B"/>
<path fill-rule="evenodd" clip-rule="evenodd" d="M28.2607 52.3293C22.5798 59.0451 22.5798 68.9548 28.2607 75.6706C28.5737 76.0407 28.904 76.4011 29.2516 76.7507C29.6492 77.1507 30.0608 77.5279 30.4848 77.8825C30.4357 78.433 30.4114 78.9908 30.4131 79.5547C30.4145 80.0477 30.4358 80.5361 30.4761 81.0191C31.2079 89.7849 38.2151 96.7921 46.9809 97.5239C47.4639 97.5642 47.9523 97.5855 48.4453 97.587C49.0092 97.5886 49.567 97.5643 50.1176 97.5152C50.4721 97.9392 50.8494 98.3508 51.2493 98.7484C51.5989 99.096 51.9593 99.4263 52.3294 99.7393C59.0452 105.42 68.9549 105.42 75.6707 99.7393C76.0407 99.4262 76.4011 99.0959 76.7507 98.7484C77.1507 98.3508 77.5279 97.9392 77.8825 97.5152C78.433 97.5643 78.9908 97.5886 79.5547 97.5869C80.0477 97.5855 80.5361 97.5642 81.0192 97.5239C89.7849 96.7921 96.7922 89.7849 97.5239 81.0191C97.5643 80.536 97.5855 80.0476 97.587 79.5547C97.5887 78.9908 97.5644 78.433 97.5152 77.8824C97.9393 77.5279 98.3508 77.1506 98.7484 76.7507C99.096 76.4011 99.4263 76.0407 99.7394 75.6706C105.42 68.9548 105.42 59.0451 99.7393 52.3294C99.4263 51.9593 99.096 51.5989 98.7484 51.2493C98.3508 50.8493 97.9392 50.4721 97.5152 50.1176C97.5643 49.567 97.5886 49.0092 97.587 48.4453C97.5855 47.9523 97.5642 47.4639 97.5239 46.9809C96.7921 38.2151 89.7849 31.2079 81.0191 30.4761C80.5361 30.4358 80.0477 30.4145 79.5547 30.413C78.9908 30.4114 78.433 30.4357 77.8825 30.4848C77.5279 30.0608 77.1507 29.6492 76.7507 29.2516C76.4011 28.904 76.0407 28.5737 75.6706 28.2607C68.9549 22.5798 59.0452 22.5798 52.3294 28.2606C51.9593 28.5737 51.5989 28.904 51.2493 29.2516C50.8494 29.6492 50.4721 30.0608 50.1176 30.4848C49.567 30.4356 49.0093 30.4114 48.4453 30.413C47.9524 30.4145 47.464 30.4357 46.9809 30.4761C38.2151 31.2079 31.2079 38.2151 30.4761 46.9808C30.4358 47.4639 30.4145 47.9523 30.4131 48.4453C30.4114 49.0092 30.4357 49.567 30.4848 50.1175C30.0608 50.4721 29.6492 50.8493 29.2516 51.2493C28.9041 51.5989 28.5738 51.9592 28.2607 52.3293ZM30.1775 70.117C28.2153 66.2911 28.2153 61.7088 30.1776 57.8829C30.6192 57.0219 31.1602 56.1992 31.8006 55.432C32.0485 55.135 32.3113 54.8463 32.589 54.567C33.5211 53.6294 34.5574 52.8608 35.6604 52.2613C36.4101 51.8538 37.1906 51.5244 37.9901 51.2731C40.484 50.4892 43.1626 50.4653 45.6677 51.2013C47.3583 51.6981 48.9698 52.5408 50.3922 53.7297C50.706 53.992 51.0106 54.2711 51.3047 54.567L55.8241 59.1131L55.8719 59.1612L58.3265 61.6303L58.3597 61.6637L58.3125 61.6638L54.831 61.6741L54.7632 61.6743L48.353 61.6932C47.9358 61.6944 47.5231 61.6764 47.1158 61.64C45.2693 61.4749 43.5338 60.9313 41.9872 60.0871C39.6953 58.8362 37.8181 56.9252 36.6089 54.6074C35.8081 55.0711 35.0539 55.6474 34.3689 56.3364C33.8809 56.8273 33.4495 57.3538 33.0748 57.9076C34.1454 59.6402 35.5034 61.1757 37.0826 62.448C37.7934 63.0207 38.5491 63.54 39.3435 64C38.5491 64.46 37.7934 64.9793 37.0826 65.5519C35.5033 66.8243 34.1454 68.3598 33.0748 70.0924C32.5887 70.879 32.1619 71.7062 31.8005 72.5679C31.1601 71.8008 30.6192 70.978 30.1775 70.117ZM37.8247 46.4405C36.9247 46.653 36.038 46.9362 35.1731 47.29C35.2628 46.2947 35.462 45.3304 35.7586 44.4093C37.0764 40.3165 40.3165 37.0763 44.4093 35.7585C45.3304 35.4619 46.2947 35.2627 47.29 35.1731C47.6753 35.1383 48.0653 35.12 48.4592 35.1189C49.7813 35.115 51.0575 35.3043 52.2613 35.6603C53.0796 35.9022 53.8645 36.2212 54.6075 36.6089C56.9252 37.818 58.8362 39.6952 60.0872 41.9871C60.9313 43.5336 61.4749 45.269 61.6401 47.1154C61.6765 47.5228 61.6945 47.9356 61.6933 48.3529L61.6744 54.7632L61.6742 54.8311L61.6639 58.3126L61.6637 58.3597L61.6303 58.3265L59.1613 55.872L59.1131 55.8241L54.567 51.3047C54.2711 51.0106 53.992 50.706 53.7297 50.3922C52.5408 48.9698 51.6981 47.3583 51.2014 45.6677C50.4653 43.1626 50.4892 40.4839 51.2731 37.99C50.379 37.7516 49.4382 37.6258 48.4667 37.6287C47.7744 37.6307 47.0971 37.698 46.4405 37.8246C45.9724 39.8067 45.8469 41.8527 46.0639 43.8691C46.1616 44.7766 46.3287 45.6782 46.5652 46.5652C45.6782 46.3287 44.7766 46.1616 43.8691 46.0639C41.8528 45.8469 39.8068 45.9724 37.8247 46.4405ZM66.3697 69.6735L68.8388 72.1281L68.8869 72.1759L73.433 76.6953C73.7289 76.9894 74.008 77.294 74.2703 77.6078C75.4592 79.0302 76.3019 80.6417 76.7987 82.3323C77.5347 84.8374 77.5108 87.516 76.7269 90.0099C77.6211 90.2484 78.5619 90.3741 79.5334 90.3713C80.2256 90.3692 80.9029 90.302 81.5595 90.1754C82.0276 88.1932 82.1531 86.1473 81.9361 84.1309C81.8384 83.2234 81.6713 82.3218 81.4348 81.4348C82.3218 81.6713 83.2234 81.8384 84.1309 81.9361C86.1473 82.1531 88.1933 82.0276 90.1754 81.5595C91.0753 81.3469 91.9621 81.0638 92.827 80.71C92.7373 81.7053 92.5381 82.6696 92.2415 83.5907C90.9237 87.6835 87.6835 90.9236 83.5907 92.2414C82.6696 92.538 81.7053 92.7372 80.71 92.8269C80.3247 92.8616 79.9347 92.8799 79.5408 92.8811C78.2188 92.885 76.9425 92.6956 75.7387 92.3397C74.9204 92.0977 74.1356 91.7787 73.3926 91.3911C71.0748 90.1819 69.1638 88.3047 67.9129 86.0128C67.0687 84.4662 66.5251 82.7307 66.36 80.8841C66.3236 80.4769 66.3056 80.0642 66.3068 79.647L66.3257 73.2369L66.3259 73.169L66.3362 69.6875L66.3363 69.6404L66.3697 69.6735ZM72.128 68.8387L69.6735 66.3697L69.6403 66.3363L69.6874 66.3361L73.1689 66.3258L73.2368 66.3256L79.6471 66.3067C80.0644 66.3055 80.4772 66.3235 80.8846 66.36C82.731 66.5251 84.4664 67.0687 86.0129 67.9128C88.3048 69.1638 90.182 71.0748 91.3911 73.3925C92.192 72.9289 92.9462 72.3525 93.6311 71.6636C94.1191 71.1726 94.5505 70.6461 94.9252 70.0923C93.8547 68.3597 92.4967 66.8242 90.9174 65.5519C90.2066 64.9793 89.451 64.46 88.6566 64C89.451 63.54 90.2066 63.0206 90.9174 62.448C92.4967 61.1757 93.8547 59.6402 94.9252 57.9076C95.4113 57.121 95.8381 56.2938 96.1995 55.4321C96.8399 56.1992 97.3809 57.022 97.8225 57.883C99.7847 61.7089 99.7847 66.2911 97.8225 70.1169C97.3809 70.978 96.8399 71.8007 96.1995 72.5679C95.9516 72.8649 95.6888 73.1536 95.411 73.433C94.479 74.3706 93.4427 75.1391 92.3397 75.7387C91.59 76.1462 90.8095 76.4756 90.01 76.7269C87.5161 77.5108 84.8374 77.5347 82.3323 76.7987C80.6417 76.3019 79.0302 75.4592 77.6078 74.2703C77.294 74.008 76.9894 73.7289 76.6953 73.433L72.1759 68.8869L72.128 68.8387ZM92.8269 47.29C92.8616 47.6753 92.8799 48.0653 92.8811 48.4592C92.885 49.7813 92.6957 51.0575 92.3397 52.2613C92.0977 53.0796 91.7787 53.8644 91.3911 54.6075C90.182 56.9252 88.3048 58.8362 86.0129 60.0871C84.4664 60.9313 82.731 61.4748 80.8846 61.64C80.4772 61.6765 80.0644 61.6945 79.6471 61.6932L73.2368 61.6743L73.1689 61.6741L69.6874 61.6638L69.6403 61.6637L69.6736 61.6303L72.1281 59.1612L72.1759 59.1131L76.6953 54.567C76.9894 54.2711 77.294 53.992 77.6078 53.7297C79.0302 52.5408 80.6417 51.6981 82.3323 51.2013C84.8374 50.4653 87.5161 50.4892 90.01 51.2731C90.2484 50.379 90.3742 49.4381 90.3713 48.4666C90.3693 47.7744 90.302 47.0971 90.1754 46.4405C88.1932 45.9724 86.1473 45.8469 84.1309 46.0639C83.2234 46.1616 82.3218 46.3287 81.4348 46.5652C81.6713 45.6782 81.8384 44.7766 81.9361 43.8691C82.1531 41.8527 82.0276 39.8068 81.5595 37.8246C81.3469 36.9247 81.0638 36.0379 80.71 35.1731C81.7053 35.2627 82.6696 35.462 83.5907 35.7585C87.6835 37.0764 90.9237 40.3165 92.2415 44.4093C92.5381 45.3304 92.7373 46.2947 92.8269 47.29ZM68.8388 55.8719L66.3697 58.3264L66.3363 58.3597L66.3362 58.3126L66.3259 54.8311L66.3257 54.7632L66.3068 48.353C66.3055 47.9356 66.3236 47.5228 66.36 47.1154C66.5252 45.269 67.0688 43.5336 67.9129 41.9871C69.1638 39.6952 71.0748 37.818 73.3925 36.6089C72.9289 35.8081 72.3526 35.0539 71.6636 34.3689C71.1726 33.8809 70.6462 33.4495 70.0924 33.0748C68.3598 34.1454 66.8243 35.5033 65.552 37.0826C64.9794 37.7934 64.46 38.549 64 39.3434C63.54 38.549 63.0207 37.7934 62.4481 37.0826C61.1758 35.5033 59.6403 34.1453 57.9077 33.0748C57.1211 32.5887 56.2938 32.1619 55.4321 31.8005C56.1993 31.1601 57.022 30.6191 57.8831 30.1775C61.7089 28.2153 66.2911 28.2153 70.117 30.1775C70.978 30.6192 71.8008 31.1601 72.5679 31.8005C72.865 32.0484 73.1536 32.3113 73.433 32.589C74.3706 33.5211 75.1392 34.5574 75.7387 35.6603C76.1462 36.41 76.4756 37.1905 76.7269 37.99C77.5108 40.4839 77.5347 43.1626 76.7987 45.6677C76.3019 47.3583 75.4592 48.9698 74.2703 50.3922C74.008 50.706 73.7289 51.0106 73.433 51.3047L68.887 55.824L68.8388 55.8719ZM54.8311 66.3259L58.3126 66.3362L58.3597 66.3363L58.3265 66.3697L55.8719 68.8388L55.8241 68.8869L51.3047 73.433C51.0106 73.7289 50.706 74.008 50.3922 74.2703C48.9698 75.4591 47.3583 76.3019 45.6677 76.7987C43.1626 77.5347 40.4839 77.5108 37.99 76.7269C37.7516 77.621 37.6258 78.5619 37.6287 79.5334C37.6308 80.2256 37.698 80.9029 37.8246 81.5595C39.8068 82.0276 41.8527 82.1531 43.8691 81.9361C44.7766 81.8384 45.6782 81.6713 46.5652 81.4348C46.3287 82.3218 46.1616 83.2234 46.0639 84.1309C45.8469 86.1473 45.9724 88.1932 46.4405 90.1754C46.6531 91.0753 46.9362 91.9621 47.29 92.8269C46.2947 92.7373 45.3304 92.538 44.4093 92.2415C40.3165 90.9236 37.0764 87.6835 35.7586 83.5907C35.462 82.6696 35.2628 81.7053 35.1731 80.71C35.1384 80.3247 35.1201 79.9347 35.1189 79.5408C35.115 78.2187 35.3043 76.9425 35.6603 75.7387C35.9023 74.9204 36.2213 74.1356 36.6089 73.3925C37.8181 71.0748 39.6953 69.1638 41.9872 67.9128C43.5338 67.0687 45.2693 66.5251 47.1159 66.36C47.5231 66.3235 47.9358 66.3055 48.353 66.3068L54.7632 66.3257L54.8311 66.3259ZM59.1612 72.1281L61.6303 69.6735L61.6637 69.6403L61.6639 69.6874L61.6741 73.1689L61.6743 73.2368L61.6933 79.647C61.6945 80.0642 61.6765 80.4769 61.6401 80.8841C61.4749 82.7306 60.9314 84.4662 60.0872 86.0128C58.8362 88.3047 56.9252 90.182 54.6075 91.3911C55.0711 92.1919 55.6475 92.9462 56.3364 93.6311C56.8274 94.1191 57.3538 94.5505 57.9076 94.9252C59.6403 93.8546 61.1758 92.4967 62.4481 90.9174C63.0207 90.2066 63.54 89.4509 64 88.6565C64.46 89.4509 64.9794 90.2066 65.552 90.9174C66.8243 92.4967 68.3598 93.8546 70.0924 94.9252C70.879 95.4112 71.7063 95.8381 72.568 96.1995C71.8008 96.8398 70.9781 97.3808 70.1171 97.8224C66.2911 99.7847 61.7089 99.7847 57.883 97.8225C57.022 97.3809 56.1992 96.8399 55.4321 96.1995C55.135 95.9516 54.8464 95.6887 54.567 95.411C53.6294 94.4789 52.8608 93.4426 52.2613 92.3397C51.8538 91.59 51.5244 90.8095 51.2731 90.01C50.4892 87.5161 50.4653 84.8374 51.2014 82.3323C51.6981 80.6417 52.5409 79.0302 53.7297 77.6078C53.992 77.294 54.2711 76.9894 54.567 76.6953L59.1131 72.1759L59.1612 72.1281Z" fill="#FAFAFA"/>
</svg>
