<svg width="128" height="128" viewBox="0 0 128 128" fill="none" xmlns="http://www.w3.org/2000/svg">
<rect width="128" height="128" rx="25" fill="#09090B"/>
<path fill-rule="evenodd" clip-rule="evenodd" d="M51.2493 29.2516C58.2929 22.2495 69.7071 22.2495 76.7507 29.2516C77.1507 29.6492 77.5279 30.0608 77.8825 30.4848C78.433 30.4357 78.9908 30.4114 79.5547 30.4131C89.4866 30.4424 97.5576 38.5135 97.587 48.4453C97.5886 49.0092 97.5643 49.567 97.5152 50.1176C97.9392 50.4721 98.3508 50.8493 98.7484 51.2493C105.751 58.2929 105.751 69.7071 98.7484 76.7507C98.3508 77.1507 97.9392 77.5279 97.5152 77.8825C97.5643 78.433 97.5886 78.9908 97.587 79.5547C97.5576 89.4866 89.4865 97.5577 79.5547 97.587C78.9908 97.5886 78.433 97.5643 77.8824 97.5152C77.5279 97.9392 77.1506 98.3508 76.7507 98.7484C69.7071 105.751 58.2929 105.751 51.2493 98.7484C50.8493 98.3508 50.4721 97.9392 50.1175 97.5152C49.567 97.5643 49.0092 97.5886 48.4453 97.5869C38.5134 97.5576 30.4424 89.4865 30.413 79.5547C30.4114 78.9908 30.4357 78.433 30.4848 77.8824C30.0608 77.5279 29.6492 77.1506 29.2516 76.7507C22.2495 69.7071 22.2495 58.2929 29.2516 51.2493C29.6492 50.8493 30.0608 50.4721 30.4848 50.1175C30.4357 49.567 30.4114 49.0092 30.4131 48.4453C30.4424 38.5134 38.5135 30.4423 48.4453 30.413C49.0092 30.4114 49.567 30.4356 50.1176 30.4848C50.4721 30.0608 50.8494 29.6492 51.2493 29.2516ZM47.29 35.173C40.877 35.7508 35.7508 40.8769 35.1731 47.29C38.8003 45.8063 42.8126 45.5647 46.5652 46.5652C45.5647 42.8126 45.8063 38.8002 47.29 35.173ZM53.7297 50.3922C50.2143 46.1861 49.7248 40.3267 52.2613 35.6603C57.3546 37.1664 61.1517 41.6557 61.64 47.1156C61.6129 47.529 61.5997 47.9462 61.6009 48.3669L61.6302 58.2787L54.6421 51.2493C54.3456 50.951 54.0412 50.6653 53.7297 50.3922ZM50.3922 53.7297C46.1861 50.2143 40.3268 49.7248 35.6603 52.2613C37.1665 57.3546 41.6558 61.1517 47.1157 61.64C47.5291 61.6128 47.9462 61.5996 48.3668 61.6009L58.2787 61.6302L51.2493 54.6421C50.951 54.3456 50.6653 54.0412 50.3922 53.7297ZM39.3435 64C35.9825 62.0539 33.3162 59.046 31.8005 55.432C27.6743 60.3752 27.6743 67.6247 31.8005 72.5679C33.3162 68.954 35.9825 65.946 39.3435 64ZM35.6603 75.7387C37.1664 70.6454 41.6558 66.8483 47.1157 66.36C47.5291 66.3871 47.9463 66.4003 48.3669 66.3991L58.2787 66.3698L51.2493 73.3579C50.951 73.6544 50.6653 73.9588 50.3922 74.2703C46.1861 77.7857 40.3268 78.2752 35.6603 75.7387ZM35.1731 80.71C35.7508 87.123 40.8769 92.2492 47.29 92.8269C45.8063 89.1997 45.5647 85.1874 46.5652 81.4348C42.8126 82.4353 38.8003 82.1937 35.1731 80.71ZM53.7297 77.6078C50.2143 81.8138 49.7248 87.6732 52.2613 92.3397C57.3546 90.8336 61.1516 86.3443 61.64 80.8844C61.6128 80.471 61.5996 80.0538 61.6009 79.6332L61.6302 69.7213L54.6421 76.7507C54.3456 77.049 54.0412 77.3347 53.7297 77.6078ZM64 88.6565C62.0539 92.0175 59.046 94.6838 55.4321 96.1995C60.3753 100.326 67.6247 100.326 72.5679 96.1995C68.954 94.6838 65.946 92.0175 64 88.6565ZM75.7387 92.3397C70.6454 90.8336 66.8483 86.3443 66.36 80.8844C66.3871 80.471 66.4004 80.0538 66.3991 79.6331L66.3699 69.7213L73.3579 76.7507C73.6544 77.049 73.9588 77.3347 74.2703 77.6078C77.7857 81.8139 78.2752 87.6733 75.7387 92.3397ZM80.71 92.827C87.1231 92.2492 92.2492 87.1231 92.8269 80.71C89.1997 82.1937 85.1874 82.4353 81.4348 81.4348C82.4353 85.1874 82.1937 89.1997 80.71 92.827ZM77.6078 74.2703C81.8138 77.7857 87.6732 78.2752 92.3397 75.7387C90.8336 70.6454 86.3442 66.8483 80.8843 66.36C80.471 66.3872 80.0538 66.4004 79.6332 66.3991L69.7213 66.3698L76.7507 73.3579C77.049 73.6544 77.3347 73.9588 77.6078 74.2703ZM88.6565 64C92.0175 65.9461 94.6838 68.954 96.1995 72.568C100.326 67.6248 100.326 60.3753 96.1995 55.4321C94.6838 59.046 92.0175 62.054 88.6565 64ZM92.3397 52.2613C90.8336 57.3546 86.3442 61.1517 80.8843 61.64C80.471 61.6129 80.0538 61.5997 79.6331 61.6009L69.7213 61.6302L76.7507 54.6421C77.049 54.3456 77.3347 54.0412 77.6078 53.7297C81.8139 50.2143 87.6732 49.7248 92.3397 52.2613ZM92.8269 47.29C92.2492 40.877 87.1231 35.7508 80.71 35.1731C82.1937 38.8003 82.4353 42.8126 81.4348 46.5652C85.1874 45.5647 89.1997 45.8063 92.8269 47.29ZM74.2703 50.3922C77.7857 46.1861 78.2752 40.3268 75.7387 35.6603C70.6455 37.1664 66.8484 41.6557 66.36 47.1156C66.3872 47.529 66.4004 47.9462 66.3991 48.3668L66.3699 58.2787L73.3579 51.2493C73.6544 50.951 73.9588 50.6653 74.2703 50.3922ZM64 39.3435C62.054 35.9825 59.046 33.3162 55.4321 31.8005C60.3753 27.6743 67.6248 27.6743 72.568 31.8005C68.954 33.3162 65.9461 35.9825 64 39.3435Z" fill="#FAFAFA"/>
</svg>
