<svg width="200" height="200" viewBox="0 0 200 200" fill="none" xmlns="http://www.w3.org/2000/svg">
<path fill-rule="evenodd" clip-rule="evenodd" d="M10.6518 70.8233C-3.55057 87.6128 -3.5506 112.387 10.6517 129.177C11.4344 130.102 12.2601 131.003 13.129 131.877C14.1229 132.877 15.1519 133.82 16.212 134.706C16.0892 136.082 16.0285 137.477 16.0326 138.887C16.0363 140.119 16.0895 141.34 16.1903 142.548C18.0197 164.462 35.5377 181.98 57.4522 183.81C58.6598 183.911 59.8808 183.964 61.1133 183.967C62.5231 183.972 63.9175 183.911 65.2939 183.788C66.1803 184.848 67.1234 185.877 68.1232 186.871C68.9972 187.74 69.8982 188.566 70.8234 189.348C87.6129 203.551 112.387 203.551 129.177 189.348C130.102 188.566 131.003 187.74 131.877 186.871C132.877 185.877 133.82 184.848 134.706 183.788C136.083 183.911 137.477 183.971 138.887 183.967C140.119 183.964 141.34 183.911 142.548 183.81C164.462 181.98 181.98 164.462 183.81 142.548C183.911 141.34 183.964 140.119 183.967 138.887C183.972 137.477 183.911 136.082 183.788 134.706C184.848 133.82 185.877 132.877 186.871 131.877C187.74 131.003 188.566 130.102 189.348 129.176C203.551 112.387 203.551 87.6129 189.348 70.8234C188.566 69.8982 187.74 68.9972 186.871 68.1232C185.877 67.1234 184.848 66.1803 183.788 65.2939C183.911 63.9175 183.972 62.523 183.967 61.1133C183.964 59.8808 183.911 58.6598 183.81 57.4522C181.98 35.5377 164.462 18.0197 142.548 16.1902C141.34 16.0894 140.119 16.0363 138.887 16.0326C137.477 16.0285 136.082 16.0892 134.706 16.212C133.82 15.1519 132.877 14.1229 131.877 13.129C131.003 12.2601 130.102 11.4343 129.177 10.6517C112.387 -3.55054 87.613 -3.55057 70.8235 10.6516C69.8983 11.4343 68.9973 12.2601 68.1232 13.129C67.1234 14.1229 66.1803 15.1519 65.294 16.2119C63.9176 16.0891 62.5231 16.0284 61.1134 16.0325C59.8809 16.0362 58.6599 16.0894 57.4522 16.1902C35.5378 18.0196 18.0198 35.5377 16.1903 57.4521C16.0895 58.6597 16.0364 59.8807 16.0327 61.1132C16.0286 62.523 16.0893 63.9174 16.2121 65.2938C15.152 66.1802 14.123 67.1233 13.129 68.1232C12.2602 68.9972 11.4344 69.8981 10.6518 70.8233ZM15.4439 115.293C10.5383 105.728 10.5383 94.2721 15.4439 84.7073C16.548 82.5548 17.9004 80.498 19.5014 78.58C20.1212 77.8375 20.7782 77.1158 21.4725 76.4175C23.8027 74.0734 26.3935 72.152 29.1509 70.6532C31.0252 69.6344 32.9765 68.8109 34.9752 68.1827C41.2099 66.223 47.9065 66.1632 54.1694 68.0034C58.3957 69.2451 62.4245 71.3521 65.9805 74.3243C66.765 74.9799 67.5264 75.6776 68.2619 76.4175L79.5602 87.7827L79.6798 87.903L85.8162 94.0757L85.8991 94.1592L85.7814 94.1595L77.0776 94.1852L76.9079 94.1857L60.8825 94.233C59.8394 94.2361 58.8078 94.1911 57.7896 94.1C53.1733 93.6872 48.8346 92.3282 44.9679 90.2178C39.2382 87.0905 34.5452 82.313 31.5223 76.5186C29.5202 77.6777 27.6347 79.1186 25.9223 80.8411C24.7022 82.0684 23.6238 83.3845 22.687 84.769C25.3635 89.1005 28.7584 92.9392 32.7066 96.12C34.4836 97.5516 36.3727 98.85 38.3588 99.9999C36.3727 101.15 34.4836 102.448 32.7066 103.88C28.7584 107.061 25.3634 110.899 22.687 115.231C21.4718 117.197 20.4048 119.266 19.5013 121.42C17.9004 119.502 16.5479 117.445 15.4439 115.293ZM34.5616 56.1013C32.3119 56.6326 30.095 57.3405 27.9328 58.2249C28.157 55.7367 28.655 53.3259 29.3964 51.0232C32.691 40.7912 40.7912 32.6909 51.0232 29.3963C53.326 28.6548 55.7367 28.1568 58.225 27.9326C59.1883 27.8458 60.1633 27.8001 61.1481 27.7972C64.4533 27.7874 67.6438 28.2608 70.6533 29.1507C72.6991 29.7556 74.6612 30.5531 76.5187 31.5221C82.3131 34.545 87.0906 39.2379 90.2179 44.9677C92.3283 48.8341 93.6872 53.1726 94.1001 57.7886C94.1912 58.807 94.2363 59.8389 94.2332 60.8823L94.1859 76.9081L94.1854 77.0778L94.1597 85.7815L94.1594 85.8993L94.0758 85.8162L87.9032 79.68L87.7828 79.5602L76.4175 68.2619C75.6776 67.5264 74.9799 66.7649 74.3243 65.9805C71.3521 62.4244 69.2452 58.3956 68.0034 54.1693C66.1632 47.9064 66.223 41.2098 68.1828 34.975C65.9475 34.379 63.5954 34.0645 61.1666 34.0717C59.4361 34.0768 57.7428 34.2449 56.1013 34.5615C54.931 39.5169 54.6172 44.6318 55.1598 49.6728C55.4041 51.9416 55.8218 54.1955 56.413 56.413C54.1955 55.8218 51.9416 55.4041 49.6728 55.1598C44.6319 54.6172 39.517 54.931 34.5616 56.1013ZM105.924 114.184L112.097 120.32L112.217 120.44L123.583 131.738C124.322 132.474 125.02 133.235 125.676 134.019C128.648 137.576 130.755 141.604 131.997 145.831C133.837 152.094 133.777 158.79 131.817 165.025C134.053 165.621 136.405 165.935 138.834 165.928C140.564 165.923 142.257 165.755 143.899 165.438C145.069 160.483 145.383 155.368 144.84 150.327C144.596 148.058 144.178 145.805 143.587 143.587C145.805 144.178 148.058 144.596 150.327 144.84C155.368 145.383 160.483 145.069 165.439 143.899C167.688 143.367 169.905 142.659 172.067 141.775C171.843 144.263 171.345 146.674 170.604 148.977C167.309 159.209 159.209 167.309 148.977 170.604C146.674 171.345 144.263 171.843 141.775 172.067C140.812 172.154 139.837 172.2 138.852 172.203C135.547 172.212 132.356 171.739 129.347 170.849C127.301 170.244 125.339 169.447 123.481 168.478C117.687 165.455 112.91 160.762 109.782 155.032C107.672 151.165 106.313 146.827 105.9 142.21C105.809 141.192 105.764 140.161 105.767 139.118L105.814 123.092L105.815 122.922L105.841 114.219L105.841 114.101L105.924 114.184ZM120.32 112.097L114.184 105.924L114.101 105.841L114.218 105.84L122.922 105.815L123.092 105.814L139.118 105.767C140.161 105.764 141.193 105.809 142.211 105.9C146.827 106.313 151.166 107.672 155.032 109.782C160.762 112.909 165.455 117.687 168.478 123.481C170.48 122.322 172.365 120.881 174.078 119.159C175.298 117.932 176.376 116.615 177.313 115.231C174.637 110.899 171.242 107.061 167.294 103.88C165.517 102.448 163.628 101.15 161.641 99.9999C163.628 98.8499 165.517 97.5516 167.294 96.12C171.242 92.9392 174.637 89.1006 177.313 84.7691C178.528 82.8025 179.595 80.7344 180.499 78.5802C182.1 80.4981 183.452 82.5549 184.556 84.7075C189.462 94.2722 189.462 105.728 184.556 115.292C183.452 117.445 182.1 119.502 180.499 121.42C179.879 122.162 179.222 122.884 178.528 123.583C176.197 125.926 173.607 127.848 170.849 129.347C168.975 130.365 167.024 131.189 165.025 131.817C158.79 133.777 152.094 133.837 145.831 131.997C141.604 130.755 137.576 128.648 134.02 125.676C133.235 125.02 132.474 124.322 131.738 123.583L120.44 112.217L120.32 112.097ZM172.067 58.2249C172.154 59.1883 172.2 60.1632 172.203 61.148C172.212 64.4532 171.739 67.6437 170.849 70.6533C170.244 72.699 169.447 74.6611 168.478 76.5187C165.455 82.313 160.762 87.0905 155.032 90.2178C151.166 92.3281 146.827 93.6871 142.211 94.1C141.193 94.1911 140.161 94.2362 139.118 94.2331L123.092 94.1858L122.922 94.1853L114.219 94.1596L114.101 94.1592L114.184 94.0757L120.32 87.9031L120.44 87.7827L131.738 76.4175C132.474 75.6776 133.235 74.9799 134.02 74.3243C137.576 71.3521 141.604 69.2451 145.831 68.0034C152.094 66.1632 158.79 66.223 165.025 68.1827C165.621 65.9474 165.935 63.5953 165.928 61.1665C165.923 59.436 165.755 57.7427 165.438 56.1013C160.483 54.931 155.368 54.6172 150.327 55.1598C148.058 55.4041 145.805 55.8218 143.587 56.413C144.178 54.1955 144.596 51.9416 144.84 49.6728C145.383 44.6318 145.069 39.5169 143.899 34.5615C143.367 32.3117 142.659 30.0948 141.775 27.9327C144.263 28.1568 146.674 28.6549 148.977 29.3963C159.209 32.6909 167.309 40.7912 170.604 51.0232C171.345 53.326 171.843 55.7367 172.067 58.2249ZM112.097 79.6798L105.924 85.8161L105.841 85.8992L105.84 85.7814L105.815 77.0776L105.814 76.908L105.767 60.8824C105.764 59.839 105.809 58.807 105.9 57.7886C106.313 53.1726 107.672 48.8341 109.782 44.9677C112.91 39.238 117.687 34.5451 123.481 31.5222C122.322 29.5202 120.881 27.6346 119.159 25.9223C117.932 24.7022 116.615 23.6238 115.231 22.687C110.899 25.3634 107.061 28.7582 103.88 32.7064C102.448 34.4834 101.15 36.3725 100 38.3586C98.8501 36.3725 97.5518 34.4834 96.1202 32.7064C92.9394 28.7582 89.1007 25.3633 84.7692 22.6869C82.8026 21.4718 80.7345 20.4047 78.5803 19.5012C80.4982 17.9003 82.555 16.5478 84.7076 15.4438C94.2723 10.5383 105.728 10.5384 115.292 15.4439C117.445 16.5479 119.502 17.9004 121.42 19.5013C122.162 20.1211 122.884 20.7782 123.583 21.4725C125.927 23.8027 127.848 26.3934 129.347 29.1508C130.365 31.0251 131.189 32.9763 131.817 34.9751C133.777 41.2098 133.837 47.9064 131.997 54.1693C130.755 58.3956 128.648 62.4244 125.676 65.9805C125.02 66.7649 124.322 67.5264 123.583 68.2619L112.217 79.5601L112.097 79.6798ZM77.0777 105.815L85.7814 105.84L85.8992 105.841L85.8163 105.924L79.6799 112.097L79.5603 112.217L68.2619 123.583C67.5264 124.322 66.765 125.02 65.9805 125.676C62.4245 128.648 58.3957 130.755 54.1694 131.997C47.9065 133.837 41.2098 133.777 34.9751 131.817C34.3791 134.053 34.0646 136.405 34.0718 138.833C34.0769 140.564 34.245 142.257 34.5616 143.899C39.5169 145.069 44.6319 145.383 49.6728 144.84C51.9416 144.596 54.1955 144.178 56.413 143.587C55.8218 145.805 55.4041 148.058 55.1598 150.327C54.6172 155.368 54.931 160.483 56.1013 165.438C56.6327 167.688 57.3405 169.905 58.2249 172.067C55.7367 171.843 53.326 171.345 51.0232 170.604C40.7912 167.309 32.6909 159.209 29.3964 148.977C28.6549 146.674 28.1569 144.263 27.9327 141.775C27.8459 140.812 27.8002 139.837 27.7973 138.852C27.7875 135.547 28.2609 132.356 29.1508 129.347C29.7557 127.301 30.5532 125.339 31.5223 123.481C34.5451 117.687 39.2381 112.909 44.9679 109.782C48.8346 107.672 53.1734 106.313 57.7896 105.9C58.8078 105.809 59.8394 105.764 60.8824 105.767L76.908 105.814L77.0777 105.815ZM87.9031 120.32L94.0759 114.184L94.1593 114.101L94.1596 114.219L94.1853 122.922L94.1858 123.092L94.2331 139.118C94.2362 140.161 94.1912 141.192 94.1001 142.21C93.6873 146.827 92.3284 151.165 90.218 155.032C87.0906 160.762 82.3131 165.455 76.5187 168.478C77.6778 170.48 79.1186 172.365 80.8411 174.078C82.0684 175.298 83.3846 176.376 84.7691 177.313C89.1006 174.637 92.9394 171.242 96.1202 167.293C97.5518 165.516 98.8501 163.627 100 161.641C101.15 163.627 102.448 165.516 103.88 167.293C107.061 171.242 110.9 174.637 115.231 177.313C117.198 178.528 119.266 179.595 121.42 180.499C119.502 182.1 117.445 183.452 115.293 184.556C105.728 189.462 94.2723 189.462 84.7075 184.556C82.5549 183.452 80.4981 182.1 78.5802 180.499C77.8376 179.879 77.1159 179.222 76.4175 178.528C74.0735 176.197 72.1521 173.607 70.6533 170.849C69.6345 168.975 68.811 167.024 68.1827 165.025C66.223 158.79 66.1632 152.094 68.0034 145.831C69.2452 141.604 71.3521 137.576 74.3243 134.019C74.9799 133.235 75.6777 132.474 76.4175 131.738L87.7829 120.44L87.9031 120.32Z" fill="#FAFAFA"/>
</svg>
