<svg width="200" height="200" viewBox="0 0 200 200" fill="none" xmlns="http://www.w3.org/2000/svg">
<path fill-rule="evenodd" clip-rule="evenodd" d="M100 150C127.614 150 150 127.614 150 100C150 72.3858 127.614 50 100 50C72.3858 50 50 72.3858 50 100C50 127.614 72.3858 150 100 150ZM100 125C113.807 125 125 113.807 125 100C125 86.1929 113.807 75 100 75C86.1929 75 75 86.1929 75 100C75 113.807 86.1929 125 100 125Z" fill="#FAFAFA"/>
<path d="M50 50C22.3858 50 2.00172e-06 72.3857 7.94663e-07 100C-4.12393e-07 127.614 22.3858 150 50 150V125C36.1929 125 25 113.807 25 100C25 86.1929 36.1929 75 50 75V50Z" fill="#D4D4D8"/>
<path d="M150 50C150 22.3858 127.614 2.41411e-06 100 0C72.3858 -2.41411e-06 50 22.3858 50 50L75 50C75 36.1929 86.1929 25 100 25C113.807 25 125 36.1929 125 50H150Z" fill="#D4D4D8"/>
<path d="M150 150C177.614 150 200 127.614 200 100C200 72.3858 177.614 50 150 50V75C163.807 75 175 86.1929 175 100C175 113.807 163.807 125 150 125V150Z" fill="#D4D4D8"/>
<path d="M50 150C50 177.614 72.3857 200 100 200C127.614 200 150 177.614 150 150H125C125 163.807 113.807 175 100 175C86.1929 175 75 163.807 75 150H50Z" fill="#D4D4D8"/>
<path d="M25 50C25 36.1929 36.1929 25 50 25V1.39091e-06C22.3858 1.83851e-07 2.00172e-06 22.3857 7.94663e-07 50H25Z" fill="#A1A1AA"/>
<path d="M150 25C163.807 25 175 36.1929 175 50H200C200 22.3858 177.614 3.24858e-06 150 8.34465e-07L150 25Z" fill="#A1A1AA"/>
<path d="M175 150C175 163.807 163.807 175 150 175V200C177.614 200 200 177.614 200 150H175Z" fill="#A1A1AA"/>
<path d="M50 175C36.1929 175 25 163.807 25 150H0C0 177.614 22.3857 200 50 200V175Z" fill="#A1A1AA"/>
</svg>
