<svg width="200" height="200" viewBox="0 0 200 200" fill="none" xmlns="http://www.w3.org/2000/svg">
<path d="M100 64.4661C100 58.6219 101.411 53.1072 103.911 48.2441L103.911 48.2429L103.928 48.2107C105.198 45.7464 106.747 43.4498 108.535 41.3629C112.141 37.1521 116.716 33.7949 121.914 31.6361C121.346 30.9518 120.742 30.2877 120.101 29.6465C116.762 26.3072 112.799 23.9724 108.587 22.642C106.178 24.1973 103.912 25.9549 101.813 27.891C101.691 28.0031 101.571 28.1157 101.45 28.229C100.957 28.6929 100.474 29.1667 100 29.6501C99.5262 29.1667 99.0427 28.6929 98.5497 28.229C96.3499 26.1591 93.9616 24.2873 91.4133 22.642C88.8486 20.9862 86.1219 19.5598 83.2621 18.392C77.5239 16.0487 71.2502 14.7462 64.6755 14.7191C64.6057 14.7188 64.5359 14.7186 64.4661 14.7186C61.0306 14.7186 57.6765 15.0669 54.4371 15.73C35.009 19.7068 19.7068 35.009 15.7299 54.4371C21.5092 50.112 27.9257 47.0293 34.6104 45.1892C37.3473 40.959 40.9589 37.3474 45.1892 34.6104C47.9325 32.8355 50.936 31.4284 54.1299 30.4589C57.4006 29.4661 60.871 28.9322 64.4661 28.9322C66.6263 28.9322 68.7416 29.125 70.7956 29.4943C73.3293 29.9498 75.7698 30.6739 78.0864 31.6362C83.2841 33.795 87.8585 37.1521 91.4651 41.3629C93.2606 43.4592 94.8163 45.7672 96.0894 48.2441C96.2311 48.5197 96.3692 48.7973 96.5038 49.0771C98.7445 53.7333 100 58.9531 100 64.4661Z" fill="#D4D4D8"/>
<path d="M125.126 74.8737C129.259 70.7413 134.156 67.8394 139.362 66.1682C139.558 66.1053 139.755 66.0441 139.952 65.9846C142.418 65.2401 144.949 64.7693 147.498 64.5724C153.025 64.1451 158.634 65.0059 163.836 67.1547C163.919 66.2697 163.961 65.3729 163.961 64.4661C163.961 59.7437 162.81 55.2903 160.772 51.3713C157.934 50.7602 155.053 50.3994 152.163 50.289C152.034 50.2841 151.905 50.2796 151.775 50.2757C151.099 50.2551 150.422 50.2482 149.745 50.2551C149.752 49.5783 149.745 48.9014 149.724 48.2248C149.632 45.2056 149.267 42.1933 148.629 39.228C147.986 36.2436 147.067 33.3069 145.87 30.4589C143.47 24.7444 139.954 19.3872 135.325 14.7191C135.275 14.6695 135.226 14.6201 135.177 14.5707C132.748 12.1414 130.13 10.0159 127.37 8.1942C110.82 -2.7314 89.1798 -2.7314 72.63 8.19421C79.7748 9.2225 86.4918 11.5799 92.5196 15.0055C97.4462 13.9496 102.554 13.9496 107.48 15.0055C110.675 15.6902 113.794 16.8191 116.738 18.3919C119.753 20.0027 122.584 22.0791 125.126 24.6212C126.654 26.1487 128.013 27.7808 129.204 29.4942C130.674 31.608 131.888 33.8457 132.845 36.1642C134.994 41.366 135.855 46.9746 135.428 52.5022C135.215 55.2542 134.683 57.9862 133.832 60.6379C133.737 60.9329 133.638 61.2269 133.536 61.5199C131.828 66.3968 129.025 70.9755 125.126 74.8737Z" fill="#FAFAFA"/>
<path d="M135.534 100C141.378 100 146.893 101.411 151.756 103.911L151.789 103.928C154.254 105.198 156.55 106.747 158.637 108.535C162.848 112.141 166.205 116.716 168.364 121.914C169.048 121.346 169.712 120.742 170.354 120.101C173.693 116.762 176.028 112.799 177.358 108.587C175.713 106.038 173.841 103.65 171.771 101.45C171.307 100.957 170.833 100.474 170.35 100C170.833 99.5263 171.307 99.0427 171.771 98.5497C173.841 96.3499 175.713 93.9616 177.358 91.4133C179.014 88.8486 180.44 86.1218 181.608 83.262C183.951 77.5238 185.254 71.2501 185.281 64.6754C185.281 64.6057 185.281 64.5359 185.281 64.4661C185.281 61.0306 184.933 57.6764 184.27 54.437C180.293 35.009 164.991 19.7069 145.563 15.73C149.888 21.5092 152.971 27.9258 154.811 34.6104C159.041 37.3474 162.653 40.959 165.39 45.1892C167.164 47.9325 168.572 50.936 169.541 54.1299C170.534 57.4006 171.068 60.871 171.068 64.4661C171.068 66.6264 170.875 68.7416 170.506 70.7955C170.05 73.3293 169.326 75.7697 168.364 78.0864C166.205 83.2841 162.848 87.8586 158.637 91.4651C156.541 93.2607 154.233 94.8163 151.756 96.0894C151.48 96.2311 151.203 96.3693 150.923 96.5039C146.267 98.7445 141.047 100 135.534 100Z" fill="#D4D4D8"/>
<path d="M125.126 125.126C129.259 129.259 132.161 134.156 133.832 139.362C133.895 139.558 133.956 139.755 134.015 139.952C134.76 142.418 135.231 144.949 135.428 147.498C135.855 153.025 134.994 158.634 132.845 163.836C133.73 163.919 134.627 163.961 135.534 163.961C140.256 163.961 144.71 162.81 148.629 160.772C149.24 157.934 149.601 155.052 149.711 152.163C149.716 152.034 149.72 151.905 149.724 151.775C149.745 151.099 149.752 150.422 149.745 149.745C150.422 149.752 151.099 149.745 151.775 149.724C154.794 149.632 157.807 149.267 160.772 148.629C163.756 147.986 166.693 147.066 169.541 145.87C175.256 143.47 180.613 139.954 185.281 135.325C185.33 135.275 185.38 135.226 185.429 135.177C187.859 132.748 189.984 130.13 191.806 127.37C202.731 110.82 202.731 89.1797 191.806 72.6299C190.777 79.7747 188.42 86.4917 184.995 92.5196C186.05 97.4462 186.05 102.554 184.995 107.48C184.31 110.675 183.181 113.794 181.608 116.738C179.997 119.753 177.921 122.584 175.379 125.126C173.851 126.654 172.219 128.013 170.506 129.204C168.392 130.674 166.154 131.888 163.836 132.845C158.634 134.994 153.025 135.855 147.498 135.428C144.746 135.215 142.014 134.683 139.362 133.832C139.067 133.737 138.773 133.638 138.48 133.536C133.603 131.828 129.025 129.025 125.126 125.126Z" fill="#FAFAFA"/>
<path d="M100 135.534C100 141.378 98.5891 146.893 96.0894 151.756L96.0722 151.789C94.8023 154.254 93.2526 156.55 91.4651 158.637C87.8585 162.848 83.284 166.205 78.0864 168.364C78.6536 169.048 79.2578 169.712 79.899 170.354C83.2382 173.693 87.2014 176.028 91.4133 177.358C93.9478 175.722 96.324 173.861 98.514 171.805L98.5497 171.771C99.0427 171.307 99.5262 170.833 100 170.35C100.474 170.833 100.957 171.307 101.45 171.771C103.65 173.841 106.038 175.713 108.587 177.358C111.151 179.014 113.878 180.44 116.738 181.608C122.476 183.951 128.75 185.254 135.325 185.281C135.394 185.281 135.464 185.281 135.534 185.281C138.969 185.281 142.324 184.933 145.563 184.27C164.991 180.293 180.293 164.991 184.27 145.563C178.491 149.888 172.074 152.971 165.39 154.811C162.653 159.041 159.041 162.653 154.811 165.39C152.068 167.164 149.064 168.572 145.87 169.541C142.599 170.534 139.129 171.068 135.534 171.068C133.374 171.068 131.258 170.875 129.204 170.506C126.671 170.05 124.23 169.326 121.914 168.364C116.716 166.205 112.141 162.848 108.535 158.637C106.739 156.541 105.184 154.233 103.911 151.756C103.769 151.48 103.631 151.203 103.496 150.923C101.255 146.267 100 141.047 100 135.534Z" fill="#D4D4D8"/>
<path d="M74.8738 125.126C70.7413 129.259 65.8442 132.161 60.6379 133.832C60.4418 133.895 60.2453 133.956 60.0483 134.015C57.582 134.76 55.0507 135.231 52.5022 135.428C46.9746 135.855 41.366 134.994 36.1642 132.845C36.0813 133.73 36.0389 134.627 36.0389 135.534C36.0389 140.256 37.1904 144.71 39.2279 148.629C42.1932 149.267 45.2056 149.632 48.2247 149.724C48.9013 149.745 49.5783 149.752 50.2551 149.745C50.2483 150.422 50.2551 151.099 50.2757 151.775C50.3676 154.794 50.7328 157.807 51.3714 160.772C52.014 163.756 52.9335 166.693 54.1299 169.541C56.5304 175.256 60.0456 180.613 64.6755 185.281C64.7246 185.33 64.7739 185.38 64.8232 185.429C67.2525 187.859 69.8705 189.984 72.63 191.806C89.1798 202.731 110.82 202.731 127.37 191.806C120.225 190.778 113.508 188.42 107.48 184.995C102.554 186.05 97.4462 186.05 92.5196 184.994C89.3248 184.31 86.206 183.181 83.2621 181.608C80.2473 179.997 77.4159 177.921 74.8738 175.379C73.3462 173.851 71.9868 172.219 70.7956 170.506C69.3261 168.392 68.1125 166.154 67.1547 163.836C65.0059 158.634 64.1452 153.025 64.5724 147.498C64.7851 144.746 65.317 142.014 66.1682 139.362C66.2629 139.067 66.3616 138.773 66.4642 138.48C68.1723 133.603 70.9755 129.025 74.8738 125.126Z" fill="#FAFAFA"/>
<path d="M41.3629 108.535C43.4592 106.739 45.7671 105.184 48.2441 103.911C48.5197 103.769 48.7973 103.631 49.0771 103.496C53.7333 101.255 58.9531 100 64.4661 100C58.6219 100 53.1072 98.5891 48.2441 96.0894L48.2428 96.0888L48.2107 96.0723C45.7464 94.8023 43.4498 93.2526 41.3629 91.4651C37.1521 87.8586 33.7949 83.2841 31.6361 78.0864C30.9517 78.6536 30.2877 79.2578 29.6465 79.899C26.3072 83.2382 23.9724 87.2015 22.642 91.4134C23.7775 93.1722 25.021 94.8547 26.363 96.4517C26.9654 97.1686 27.5877 97.8682 28.2289 98.5498C28.6928 99.0427 29.1666 99.5263 29.6501 100C29.1666 100.474 28.6928 100.957 28.2289 101.45C26.1591 103.65 24.2873 106.038 22.642 108.587C20.9862 111.151 19.5598 113.878 18.3919 116.738C16.0486 122.476 14.7461 128.75 14.719 135.324C14.7187 135.394 14.7186 135.464 14.7186 135.534C14.7186 138.969 15.0668 142.324 15.7299 145.563C19.7068 164.991 35.009 180.293 54.437 184.27C50.112 178.491 47.0293 172.074 45.1892 165.39C40.9589 162.653 37.3474 159.041 34.6104 154.811C32.8354 152.067 31.4283 149.064 30.4588 145.87C29.466 142.599 28.9321 139.129 28.9321 135.534C28.9321 133.374 29.1249 131.258 29.4942 129.204C29.9498 126.671 30.6739 124.23 31.6361 121.914C33.7949 116.716 37.1521 112.141 41.3629 108.535Z" fill="#D4D4D8"/>
<path d="M52.5022 64.5724C55.2542 64.7851 57.9862 65.317 60.6379 66.1682C60.9329 66.2629 61.227 66.3616 61.5199 66.4642C66.3968 68.1723 70.9755 70.9755 74.8738 74.8737C70.7413 70.7413 67.8394 65.8442 66.1682 60.6379C66.1053 60.4418 66.0441 60.2453 65.9846 60.0483C65.2401 57.582 64.7694 55.0507 64.5724 52.5022C64.1452 46.9746 65.0059 41.366 67.1547 36.1642C66.2697 36.0813 65.3729 36.039 64.4661 36.039C59.7437 36.039 55.2903 37.1904 51.3714 39.2279C50.7328 42.1933 50.3676 45.2056 50.2757 48.2248C50.2551 48.9014 50.2483 49.5783 50.2551 50.2551C49.5783 50.2482 48.9014 50.2551 48.2248 50.2757C45.2056 50.3676 42.1933 50.7328 39.2279 51.3714C36.2435 52.014 33.3068 52.9335 30.4589 54.1299C24.7444 56.5305 19.3872 60.0457 14.719 64.6755C14.6695 64.7246 14.6201 64.7739 14.5707 64.8232C12.1414 67.2525 10.0159 69.8705 8.19417 72.63C-2.73139 89.1798 -2.73139 110.82 8.19418 127.37C9.22247 120.225 11.5798 113.508 15.0055 107.48C13.9496 102.554 13.9496 97.4462 15.0055 92.5197C15.6902 89.3248 16.8191 86.2061 18.3919 83.2621C20.0027 80.2473 22.0791 77.4159 24.6212 74.8737C26.1487 73.3462 27.7807 71.9868 29.4942 70.7956C31.6079 69.3261 33.8457 68.1125 36.1642 67.1547C41.366 65.0059 46.9746 64.1451 52.5022 64.5724Z" fill="#FAFAFA"/>
</svg>
