<svg width="200" height="200" viewBox="0 0 200 200" fill="none" xmlns="http://www.w3.org/2000/svg">
<path fill-rule="evenodd" clip-rule="evenodd" d="M68.1232 13.129C85.7322 -4.37634 114.268 -4.37634 131.877 13.129C132.877 14.1229 133.82 15.1519 134.706 16.212C136.083 16.0892 137.477 16.0285 138.887 16.0326C163.716 16.1059 183.894 36.2836 183.967 61.1133C183.972 62.5231 183.911 63.9175 183.788 65.2939C184.848 66.1803 185.877 67.1234 186.871 68.1232C204.376 85.7322 204.376 114.268 186.871 131.877C185.877 132.877 184.848 133.82 183.788 134.706C183.911 136.083 183.972 137.477 183.967 138.887C183.894 163.716 163.716 183.894 138.887 183.967C137.477 183.972 136.082 183.911 134.706 183.788C133.82 184.848 132.877 185.877 131.877 186.871C114.268 204.376 85.7322 204.376 68.1232 186.871C67.1234 185.877 66.1803 184.848 65.2939 183.788C63.9175 183.911 62.523 183.972 61.1133 183.967C36.2836 183.894 16.1059 163.716 16.0326 138.887C16.0284 137.477 16.0892 136.082 16.212 134.706C15.1519 133.82 14.1229 132.877 13.129 131.877C-4.37634 114.268 -4.37634 85.7322 13.129 68.1232C14.1229 67.1234 15.1519 66.1803 16.212 65.2939C16.0892 63.9175 16.0285 62.523 16.0326 61.1132C16.1059 36.2836 36.2837 16.1059 61.1133 16.0325C62.5231 16.0284 63.9176 16.0891 65.294 16.2119C66.1803 15.1519 67.1234 14.1229 68.1232 13.129ZM58.225 27.9326C42.1924 29.3769 29.377 42.1923 27.9327 58.2249C37.0007 54.5157 47.0315 53.9118 56.413 56.413C53.9118 47.0315 54.5158 37.0006 58.225 27.9326ZM74.3243 65.9805C65.5357 55.4653 64.3121 40.8169 70.6533 29.1507C83.3865 32.916 92.8792 44.1393 94.1001 57.789C94.0322 58.8224 93.9991 59.8655 94.0023 60.9171L94.0754 85.6967L76.6053 68.1232C75.8639 67.3774 75.103 66.6632 74.3243 65.9805ZM65.9805 74.3243C55.4654 65.5357 40.8169 64.3121 29.1508 70.6533C32.9161 83.3864 44.1395 92.8792 57.7893 94.1C58.8226 94.0321 59.8656 93.9991 60.9171 94.0022L85.6967 94.0754L68.1232 76.6053C67.3774 75.8639 66.6632 75.103 65.9805 74.3243ZM38.3587 99.9999C29.9563 95.1348 23.2906 87.6149 19.5013 78.5801C9.18585 90.9381 9.18584 109.062 19.5013 121.42C23.2905 112.385 29.9563 104.865 38.3587 99.9999ZM29.1508 129.347C32.9161 116.613 44.1394 107.121 57.7893 105.9C58.8227 105.968 59.8656 106.001 60.9171 105.998L85.6968 105.925L68.1232 123.395C67.3774 124.136 66.6631 124.897 65.9805 125.676C55.4653 134.464 40.8169 135.688 29.1508 129.347ZM27.9327 141.775C29.377 157.808 42.1924 170.623 58.2249 172.067C54.5157 162.999 53.9118 152.969 56.413 143.587C47.0315 146.088 37.0007 145.484 27.9327 141.775ZM74.3243 134.019C65.5357 144.535 64.3121 159.183 70.6533 170.849C83.3864 167.084 92.8791 155.861 94.1001 142.211C94.0321 141.178 93.9991 140.135 94.0022 139.083L94.0754 114.303L76.6053 131.877C75.8639 132.623 75.103 133.337 74.3243 134.019ZM100 161.641C95.1349 170.044 87.6149 176.709 78.5801 180.499C90.9381 190.814 109.062 190.814 121.42 180.499C112.385 176.71 104.865 170.044 100 161.641ZM129.347 170.849C116.614 167.084 107.121 155.861 105.9 142.211C105.968 141.178 106.001 140.134 105.998 139.083L105.925 114.303L123.395 131.877C124.136 132.623 124.897 133.337 125.676 134.019C134.464 144.535 135.688 159.183 129.347 170.849ZM141.775 172.067C157.808 170.623 170.623 157.808 172.067 141.775C162.999 145.484 152.969 146.088 143.587 143.587C146.088 152.969 145.484 162.999 141.775 172.067ZM134.019 125.676C144.535 134.464 159.183 135.688 170.849 129.347C167.084 116.614 155.861 107.121 142.211 105.9C141.177 105.968 140.134 106.001 139.083 105.998L114.303 105.925L131.877 123.395C132.623 124.136 133.337 124.897 134.019 125.676ZM161.641 100C170.044 104.865 176.709 112.385 180.499 121.42C190.814 109.062 190.814 90.9382 180.499 78.5802C176.709 87.615 170.044 95.135 161.641 100ZM170.849 70.6533C167.084 83.3865 155.861 92.8793 142.211 94.1001C141.177 94.0322 140.134 93.9992 139.083 94.0023L114.303 94.0754L131.877 76.6053C132.623 75.8639 133.337 75.103 134.019 74.3243C144.535 65.5357 159.183 64.3121 170.849 70.6533ZM172.067 58.2249C170.623 42.1924 157.808 29.377 141.775 27.9327C145.484 37.0007 146.088 47.0315 143.587 56.413C152.969 53.9118 162.999 54.5157 172.067 58.2249ZM125.676 65.9805C134.464 55.4653 135.688 40.8169 129.347 29.1508C116.614 32.9161 107.121 44.1393 105.9 57.789C105.968 58.8224 106.001 59.8655 105.998 60.9171L105.925 85.6967L123.395 68.1232C124.136 67.3774 124.897 66.6631 125.676 65.9805ZM100 38.3587C95.135 29.9563 87.615 23.2905 78.5802 19.5012C90.9382 9.18585 109.062 9.18587 121.42 19.5013C112.385 23.2905 104.865 29.9563 100 38.3587Z" fill="#FAFAFA"/>
</svg>
