<svg width="104" height="100" viewBox="0 0 104 100" fill="none" xmlns="http://www.w3.org/2000/svg">
<path d="M33.9129 17.0996C33.6823 16.8686 33.5527 16.5552 33.5527 16.2285V1.23437C33.5527 0.136864 34.8774 -0.412766 35.6521 0.363286L51.1304 15.8677C51.6107 16.3488 52.3894 16.3488 52.8696 15.8677L68.3479 0.363284C69.1226 -0.412768 70.4473 0.136864 70.4473 1.23437V16.2285C70.4473 16.5552 70.3178 16.8686 70.0871 17.0996L52.8696 34.3461C52.3894 34.8272 51.6107 34.8272 51.1304 34.3461L33.9129 17.0996Z" fill="#FAFAFA"/>
<path d="M71.401 17.8595C71.4854 17.5439 71.6915 17.2748 71.974 17.1115L84.9374 9.61439C85.8863 9.06564 87.0238 9.93998 86.7402 11.0001L81.0748 32.1795C80.899 32.8367 81.2884 33.5122 81.9444 33.6882L103.088 39.3632C104.146 39.6473 104.334 41.0713 103.385 41.62L90.4213 49.1171C90.1389 49.2805 89.8032 49.3247 89.4881 49.2402L65.9686 42.9275C65.3125 42.7514 64.9232 42.0759 65.099 41.4187L71.401 17.8595Z" fill="#FAFAFA"/>
<path d="M103.088 60.6368C104.146 60.3527 104.334 58.9288 103.385 58.38L90.4213 50.883C90.1388 50.7196 89.8031 50.6753 89.4881 50.7599L65.9685 57.0726C65.3125 57.2487 64.9231 57.9242 65.0989 58.5813L71.401 82.1406C71.4854 82.4562 71.6915 82.7252 71.974 82.8886L84.9374 90.3857C85.8863 90.9344 87.0238 90.0601 86.7402 89L81.0748 67.8206C80.899 67.1634 81.2883 66.4879 81.9444 66.3118L103.088 60.6368Z" fill="#FAFAFA"/>
<path d="M70.0871 82.9004C70.3177 83.1314 70.4473 83.4448 70.4473 83.7715V98.7656C70.4473 99.8631 69.1226 100.413 68.3479 99.6367L52.8696 84.1323C52.3893 83.6512 51.6106 83.6512 51.1304 84.1323L35.6521 99.6367C34.8773 100.413 33.5527 99.8631 33.5527 98.7656V83.7715C33.5527 83.4448 33.6822 83.1314 33.9129 82.9004L51.1304 65.6539C51.6106 65.1728 52.3893 65.1728 52.8696 65.6539L70.0871 82.9004Z" fill="#FAFAFA"/>
<path d="M17.2598 88.9999C16.9762 90.06 18.1137 90.9344 19.0626 90.3856L32.026 82.8885C32.3085 82.7252 32.5146 82.4561 32.599 82.1405L38.901 58.5813C39.0768 57.9241 38.6875 57.2486 38.0314 57.0725L14.5119 50.7598C14.1968 50.6753 13.8611 50.7196 13.5787 50.8829L0.615262 58.38C-0.333602 58.9287 -0.146446 60.3527 0.911874 60.6368L22.0556 66.3118C22.7116 66.4878 23.101 67.1633 22.9252 67.8205L17.2598 88.9999Z" fill="#FAFAFA"/>
<path d="M14.5119 49.2401C14.1969 49.3247 13.8612 49.2804 13.5787 49.117L0.615286 41.62C-0.333578 41.0712 -0.146422 39.6473 0.911898 39.3632L22.0556 33.6882C22.7117 33.5121 23.101 32.8366 22.9252 32.1794L17.2598 11C16.9762 9.93993 18.1137 9.06559 19.0626 9.61435L32.026 17.1114C32.3085 17.2748 32.5146 17.5438 32.599 17.8594L38.9011 41.4187C39.0768 42.0758 38.6875 42.7513 38.0314 42.9274L14.5119 49.2401Z" fill="#FAFAFA"/>
</svg>
