<svg width="1200" height="400" viewBox="0 0 1200 400" fill="none" xmlns="http://www.w3.org/2000/svg">
<rect width="1200" height="400" rx="25" fill="#09090B"/>
<path fill-rule="evenodd" clip-rule="evenodd" d="M600 225C613.807 225 625 213.807 625 200C625 186.193 613.807 175 600 175C586.193 175 575 186.193 575 200C575 213.807 586.193 225 600 225ZM600 212.5C606.903 212.5 612.5 206.904 612.5 200C612.5 193.096 606.903 187.5 600 187.5C593.096 187.5 587.5 193.096 587.5 200C587.5 206.904 593.096 212.5 600 212.5Z" fill="#10B981"/>
<path d="M575 175C561.193 175 550 186.193 550 200C550 213.807 561.193 225 575 225L575 212.5C568.096 212.5 562.5 206.904 562.5 200C562.5 193.096 568.096 187.5 575 187.5L575 175Z" fill="white"/>
<path d="M625 175C625 161.193 613.807 150 600 150C586.193 150 575 161.193 575 175L587.5 175C587.5 168.096 593.096 162.5 600 162.5C606.904 162.5 612.5 168.096 612.5 175L625 175Z" fill="white"/>
<path d="M625 225C638.807 225 650 213.807 650 200C650 186.193 638.807 175 625 175L625 187.5C631.903 187.5 637.5 193.096 637.5 200C637.5 206.904 631.903 212.5 625 212.5L625 225Z" fill="white"/>
<path d="M575 225C575 238.807 586.193 250 600 250C613.807 250 625 238.807 625 225H612.5C612.5 231.904 606.904 237.5 600 237.5C593.096 237.5 587.5 231.904 587.5 225H575Z" fill="white"/>
<path d="M562.5 175C562.5 168.096 568.096 162.5 575 162.5L575 150C561.193 150 550 161.193 550 175L562.5 175Z" fill="white"/>
<path d="M625 162.5C631.904 162.5 637.5 168.096 637.5 175L650 175C650 161.193 638.807 150 625 150L625 162.5Z" fill="white"/>
<path d="M637.5 225C637.5 231.904 631.904 237.5 625 237.5L625 250C638.807 250 650 238.807 650 225L637.5 225Z" fill="white"/>
<path d="M575 237.5C568.096 237.5 562.5 231.904 562.5 225H550C550 238.807 561.193 250 575 250V237.5Z" fill="white"/>
<path d="M662.5 225C662.5 231.904 656.904 237.5 650 237.5L650 250C663.807 250 675 238.807 675 225L662.5 225Z" fill="#18181B"/>
<path d="M637.5 250C637.5 256.904 631.904 262.5 625 262.5L625 275C638.807 275 650 263.807 650 250L637.5 250Z" fill="#18181B"/>
<path d="M550 237.5C543.096 237.5 537.5 231.904 537.5 225H525C525 238.807 536.193 250 550 250V237.5Z" fill="#18181B"/>
<path d="M575 262.5C568.096 262.5 562.5 256.904 562.5 250H550C550 263.807 561.193 275 575 275V262.5Z" fill="#18181B"/>
<path d="M575 287.5C568.096 287.5 562.5 281.904 562.5 275H550C550 288.807 561.193 300 575 300V287.5Z" fill="#18181B"/>
<path d="M550 262.5C543.096 262.5 537.5 256.904 537.5 250H525C525 263.807 536.193 275 550 275V262.5Z" fill="#18181B"/>
<path d="M525 237.5C518.096 237.5 512.5 231.904 512.5 225H500C500 238.807 511.193 250 525 250V237.5Z" fill="#18181B"/>
<path d="M562.5 150C562.5 143.096 568.096 137.5 575 137.5L575 125C561.193 125 550 136.193 550 150L562.5 150Z" fill="#18181B"/>
<path d="M537.5 175C537.5 168.096 543.096 162.5 550 162.5L550 150C536.193 150 525 161.193 525 175L537.5 175Z" fill="#18181B"/>
<path d="M512.5 175C512.5 168.096 518.096 162.5 525 162.5L525 150C511.193 150 500 161.193 500 175L512.5 175Z" fill="#18181B"/>
<path d="M537.5 150C537.5 143.096 543.096 137.5 550 137.5L550 125C536.193 125 525 136.193 525 150L537.5 150Z" fill="#18181B"/>
<path d="M562.5 125C562.5 118.096 568.096 112.5 575 112.5L575 100C561.193 100 550 111.193 550 125L562.5 125Z" fill="#18181B"/>
<path d="M650 162.5C656.904 162.5 662.5 168.096 662.5 175L675 175C675 161.193 663.807 150 650 150L650 162.5Z" fill="#18181B"/>
<path d="M625 137.5C631.904 137.5 637.5 143.096 637.5 150L650 150C650 136.193 638.807 125 625 125L625 137.5Z" fill="#18181B"/>
<path d="M625 112.5C631.904 112.5 637.5 118.096 637.5 125L650 125C650 111.193 638.807 100 625 100L625 112.5Z" fill="#18181B"/>
<path d="M650 137.5C656.904 137.5 662.5 143.096 662.5 150L675 150C675 136.193 663.807 125 650 125L650 137.5Z" fill="#18181B"/>
<path d="M675 162.5C681.904 162.5 687.5 168.096 687.5 175L700 175C700 161.193 688.807 150 675 150L675 162.5Z" fill="#18181B"/>
<path d="M662.5 250C662.5 256.904 656.904 262.5 650 262.5L650 275C663.807 275 675 263.807 675 250L662.5 250Z" fill="#18181B"/>
<path d="M687.5 225C687.5 231.904 681.904 237.5 675 237.5L675 250C688.807 250 700 238.807 700 225L687.5 225Z" fill="#18181B"/>
<path d="M637.5 275C637.5 281.904 631.904 287.5 625 287.5L625 300C638.807 300 650 288.807 650 275L637.5 275Z" fill="#18181B"/>
<path d="M550 175C536.193 175 525 186.193 525 200C525 213.807 536.193 225 550 225L550 212.5C543.096 212.5 537.5 206.904 537.5 200C537.5 193.096 543.096 187.5 550 187.5L550 175Z" fill="#18181B"/>
<path d="M525 175C511.193 175 500 186.193 500 200C500 213.807 511.193 225 525 225L525 212.5C518.096 212.5 512.5 206.904 512.5 200C512.5 193.096 518.096 187.5 525 187.5L525 175Z" fill="#18181B"/>
<path d="M625 150C625 136.193 613.807 125 600 125C586.193 125 575 136.193 575 150L587.5 150C587.5 143.096 593.096 137.5 600 137.5C606.904 137.5 612.5 143.096 612.5 150L625 150Z" fill="#18181B"/>
<path d="M625 125C625 111.193 613.807 100 600 100C586.193 100 575 111.193 575 125L587.5 125C587.5 118.096 593.096 112.5 600 112.5C606.904 112.5 612.5 118.096 612.5 125L625 125Z" fill="#18181B"/>
<path d="M650 225C663.807 225 675 213.807 675 200C675 186.193 663.807 175 650 175L650 187.5C656.904 187.5 662.5 193.096 662.5 200C662.5 206.904 656.904 212.5 650 212.5L650 225Z" fill="#18181B"/>
<path d="M675 225C688.807 225 700 213.807 700 200C700 186.193 688.807 175 675 175L675 187.5C681.904 187.5 687.5 193.096 687.5 200C687.5 206.904 681.904 212.5 675 212.5L675 225Z" fill="#18181B"/>
<path d="M575 250C575 263.807 586.193 275 600 275C613.807 275 625 263.807 625 250H612.5C612.5 256.904 606.904 262.5 600 262.5C593.096 262.5 587.5 256.904 587.5 250H575Z" fill="#18181B"/>
<path d="M575 275C575 288.807 586.193 300 600 300C613.807 300 625 288.807 625 275H612.5C612.5 281.904 606.904 287.5 600 287.5C593.096 287.5 587.5 281.904 587.5 275H575Z" fill="#18181B"/>
</svg>
