<svg width="1200" height="400" viewBox="0 0 1200 400" fill="none" xmlns="http://www.w3.org/2000/svg">
<rect width="1200" height="400" rx="25" fill="#09090B"/>
<path fill-rule="evenodd" clip-rule="evenodd" d="M600 237.5C620.711 237.5 637.5 220.711 637.5 200C637.5 179.289 620.711 162.5 600 162.5C579.289 162.5 562.5 179.289 562.5 200C562.5 220.711 579.289 237.5 600 237.5ZM600 218.75C610.355 218.75 618.75 210.355 618.75 200C618.75 189.645 610.355 181.25 600 181.25C589.645 181.25 581.25 189.645 581.25 200C581.25 210.355 589.645 218.75 600 218.75Z" fill="#FAFAFA"/>
<path d="M562.5 162.5C541.789 162.5 525 179.289 525 200C525 220.711 541.789 237.5 562.5 237.5L562.5 218.75C552.145 218.75 543.75 210.355 543.75 200C543.75 189.645 552.145 181.25 562.5 181.25L562.5 162.5Z" fill="#D4D4D8"/>
<path d="M637.5 162.5C637.5 141.789 620.711 125 600 125C579.289 125 562.5 141.789 562.5 162.5L581.25 162.5C581.25 152.145 589.645 143.75 600 143.75C610.355 143.75 618.75 152.145 618.75 162.5L637.5 162.5Z" fill="#D4D4D8"/>
<path d="M637.5 237.5C658.211 237.5 675 220.711 675 200C675 179.289 658.211 162.5 637.5 162.5L637.5 181.25C647.855 181.25 656.25 189.645 656.25 200C656.25 210.355 647.855 218.75 637.5 218.75L637.5 237.5Z" fill="#D4D4D8"/>
<path d="M562.5 237.5C562.5 258.211 579.289 275 600 275C620.711 275 637.5 258.211 637.5 237.5H618.75C618.75 247.855 610.355 256.25 600 256.25C589.645 256.25 581.25 247.855 581.25 237.5H562.5Z" fill="#D4D4D8"/>
<path d="M543.75 162.5C543.75 152.145 552.145 143.75 562.5 143.75L562.5 125C541.789 125 525 141.789 525 162.5L543.75 162.5Z" fill="#A1A1AA"/>
<path d="M637.5 143.75C647.855 143.75 656.25 152.145 656.25 162.5L675 162.5C675 141.789 658.211 125 637.5 125L637.5 143.75Z" fill="#A1A1AA"/>
<path d="M656.25 237.5C656.25 247.855 647.855 256.25 637.5 256.25L637.5 275C658.211 275 675 258.211 675 237.5L656.25 237.5Z" fill="#A1A1AA"/>
<path d="M562.5 256.25C552.145 256.25 543.75 247.855 543.75 237.5H525C525 258.211 541.789 275 562.5 275V256.25Z" fill="#A1A1AA"/>
<path d="M693.75 237.5C693.75 247.855 685.355 256.25 675 256.25L675 275C695.711 275 712.5 258.211 712.5 237.5L693.75 237.5Z" fill="#18181B"/>
<path d="M656.25 275C656.25 285.355 647.855 293.75 637.5 293.75L637.5 312.5C658.211 312.5 675 295.711 675 275L656.25 275Z" fill="#18181B"/>
<path d="M525 256.25C514.645 256.25 506.25 247.855 506.25 237.5H487.5C487.5 258.211 504.289 275 525 275V256.25Z" fill="#18181B"/>
<path d="M562.5 293.75C552.145 293.75 543.75 285.355 543.75 275H525C525 295.711 541.789 312.5 562.5 312.5V293.75Z" fill="#18181B"/>
<path d="M562.5 331.25C552.145 331.25 543.75 322.855 543.75 312.5H525C525 333.211 541.789 350 562.5 350V331.25Z" fill="#18181B"/>
<path d="M525 293.75C514.645 293.75 506.25 285.355 506.25 275H487.5C487.5 295.711 504.289 312.5 525 312.5V293.75Z" fill="#18181B"/>
<path d="M487.5 256.25C477.145 256.25 468.75 247.855 468.75 237.5H450C450 258.211 466.789 275 487.5 275V256.25Z" fill="#18181B"/>
<path d="M543.75 125C543.75 114.645 552.145 106.25 562.5 106.25L562.5 87.5C541.789 87.5 525 104.289 525 125L543.75 125Z" fill="#18181B"/>
<path d="M506.25 162.5C506.25 152.145 514.645 143.75 525 143.75L525 125C504.289 125 487.5 141.789 487.5 162.5L506.25 162.5Z" fill="#18181B"/>
<path d="M468.75 162.5C468.75 152.145 477.145 143.75 487.5 143.75L487.5 125C466.789 125 450 141.789 450 162.5L468.75 162.5Z" fill="#18181B"/>
<path d="M506.25 125C506.25 114.645 514.645 106.25 525 106.25L525 87.5C504.289 87.5 487.5 104.289 487.5 125L506.25 125Z" fill="#18181B"/>
<path d="M543.75 87.5C543.75 77.1447 552.145 68.75 562.5 68.75L562.5 50C541.789 50 525 66.7893 525 87.5L543.75 87.5Z" fill="#18181B"/>
<path d="M675 143.75C685.355 143.75 693.75 152.145 693.75 162.5L712.5 162.5C712.5 141.789 695.711 125 675 125L675 143.75Z" fill="#18181B"/>
<path d="M637.5 106.25C647.855 106.25 656.25 114.645 656.25 125L675 125C675 104.289 658.211 87.5 637.5 87.5L637.5 106.25Z" fill="#18181B"/>
<path d="M637.5 68.75C647.855 68.75 656.25 77.1447 656.25 87.5L675 87.5C675 66.7893 658.211 50 637.5 50L637.5 68.75Z" fill="#18181B"/>
<path d="M675 106.25C685.355 106.25 693.75 114.645 693.75 125L712.5 125C712.5 104.289 695.711 87.5 675 87.5L675 106.25Z" fill="#18181B"/>
<path d="M712.5 143.75C722.855 143.75 731.25 152.145 731.25 162.5L750 162.5C750 141.789 733.211 125 712.5 125L712.5 143.75Z" fill="#18181B"/>
<path d="M693.75 275C693.75 285.355 685.355 293.75 675 293.75L675 312.5C695.711 312.5 712.5 295.711 712.5 275L693.75 275Z" fill="#18181B"/>
<path d="M731.25 237.5C731.25 247.855 722.855 256.25 712.5 256.25L712.5 275C733.211 275 750 258.211 750 237.5L731.25 237.5Z" fill="#18181B"/>
<path d="M656.25 312.5C656.25 322.855 647.855 331.25 637.5 331.25L637.5 350C658.211 350 675 333.211 675 312.5L656.25 312.5Z" fill="#18181B"/>
<path d="M525 162.5C504.289 162.5 487.5 179.289 487.5 200C487.5 220.711 504.289 237.5 525 237.5L525 218.75C514.645 218.75 506.25 210.355 506.25 200C506.25 189.645 514.645 181.25 525 181.25L525 162.5Z" fill="#18181B"/>
<path d="M487.5 162.5C466.789 162.5 450 179.289 450 200C450 220.711 466.789 237.5 487.5 237.5L487.5 218.75C477.145 218.75 468.75 210.355 468.75 200C468.75 189.645 477.145 181.25 487.5 181.25L487.5 162.5Z" fill="#18181B"/>
<path d="M637.5 125C637.5 104.289 620.711 87.5 600 87.5C579.289 87.5 562.5 104.289 562.5 125L581.25 125C581.25 114.645 589.645 106.25 600 106.25C610.355 106.25 618.75 114.645 618.75 125L637.5 125Z" fill="#18181B"/>
<path d="M637.5 87.5C637.5 66.7893 620.711 50 600 50C579.289 50 562.5 66.7893 562.5 87.5L581.25 87.5C581.25 77.1447 589.645 68.75 600 68.75C610.355 68.75 618.75 77.1447 618.75 87.5L637.5 87.5Z" fill="#18181B"/>
<path d="M675 237.5C695.711 237.5 712.5 220.711 712.5 200C712.5 179.289 695.711 162.5 675 162.5L675 181.25C685.355 181.25 693.75 189.645 693.75 200C693.75 210.355 685.355 218.75 675 218.75L675 237.5Z" fill="#18181B"/>
<path d="M712.5 237.5C733.211 237.5 750 220.711 750 200C750 179.289 733.211 162.5 712.5 162.5L712.5 181.25C722.855 181.25 731.25 189.645 731.25 200C731.25 210.355 722.855 218.75 712.5 218.75L712.5 237.5Z" fill="#18181B"/>
<path d="M562.5 275C562.5 295.711 579.289 312.5 600 312.5C620.711 312.5 637.5 295.711 637.5 275H618.75C618.75 285.355 610.355 293.75 600 293.75C589.645 293.75 581.25 285.355 581.25 275H562.5Z" fill="#18181B"/>
<path d="M562.5 312.5C562.5 333.211 579.289 350 600 350C620.711 350 637.5 333.211 637.5 312.5H618.75C618.75 322.855 610.355 331.25 600 331.25C589.645 331.25 581.25 322.855 581.25 312.5H562.5Z" fill="#18181B"/>
</svg>
